<?xml version="1.0" encoding="UTF-8"?>
<svg width="10px" height="9px" viewBox="0 0 10 9" version="1.1" xmlns="http://www.w3.org/2000/svg" xmlns:xlink="http://www.w3.org/1999/xlink">
    <!-- Generator: Sketch 52.1 (67048) - http://www.bohemiancoding.com/sketch -->
    <title>Group 12 Copy</title>
    <desc>Created with Sketch.</desc>
    <g id="Page-1" stroke="none" stroke-width="1" fill="none" fill-rule="evenodd">
        <g id="Group-12-Copy" transform="translate(-2.000000, -3.000000)">
            <rect id="Rectangle-Copy-2" fill="#D8D8D8" fill-rule="nonzero" opacity="0" x="0" y="0" width="14" height="14"></rect>
            <g id="Group-10" transform="translate(2.000000, 3.000000)" fill="#FFFFFF">
                <path d="M1.66666667,1.6336 L1.66666667,3.2464 L0.416666667,3.2464 L0.416666667,1.6336 L1.66666667,1.6336 Z M1.66666667,4.0336 L1.66666667,5.2336 L0.416666667,5.2336 L0.416666667,4.0336 L1.66666667,4.0336 Z M1.66666667,6.04 L1.66666667,6.8464 L0.416666667,6.8464 L0.416666667,6.04 L1.66666667,6.04 Z M0.416666667,8.0464 L0.416666667,7.6336 L7.91666667,7.6336 L7.91666667,8.0464 L0.416666667,8.0464 Z" id="Combined-Shape"></path>
                <path d="M2.25,0.48 L9.75,0.48 L9.75,2.0928 L2.25,2.0928 L2.25,0.48 Z M2.25,4.08 L2.25,2.88 L9.75,2.88 L9.75,4.08 L2.25,4.08 Z M2.25,6.8928 L2.25,6.48 L9.75,6.48 L9.75,6.8928 L2.25,6.8928 Z M2.25,5.6928 L2.25,4.8864 L9.75,4.8864 L9.75,5.6928 L2.25,5.6928 Z" id="line_weight---material-copy-2"></path>
            </g>
        </g>
    </g>
</svg>