<?xml version="1.0" encoding="UTF-8"?>
<svg width="12px" height="12px" viewBox="0 0 12 12" version="1.1" xmlns="http://www.w3.org/2000/svg" xmlns:xlink="http://www.w3.org/1999/xlink">
    <!-- Generator: Sketch 52.1 (67048) - http://www.bohemiancoding.com/sketch -->
    <title>Group 2 Copy</title>
    <desc>Created with Sketch.</desc>
    <g id="Page-1" stroke="none" stroke-width="1" fill="none" fill-rule="evenodd">
        <g id="Group-2-Copy" transform="translate(-1.000000, -1.000000)" fill="#FFFFFF">
            <g id="Group-5-Copy" transform="translate(1.000000, 1.000000)">
                <path d="M4.23236503,1.10632125 C4.19161665,1.16754996 4.15212093,1.23001164 4.11387787,1.29370629 C3.70975214,1.97698477 3.50769231,2.72654021 3.50769231,3.5423951 C3.50769231,3.55671632 3.50777468,3.57108618 3.50793943,3.58550467 C3.39489505,3.61604787 3.28675142,3.66160684 3.18350769,3.72218182 C2.9752605,3.84436425 2.80910831,4.01018077 2.68504615,4.21963636 C2.560984,4.42909196 2.49895385,4.65599878 2.49895385,4.90036364 C2.49895385,5.27563824 2.63187559,5.59418051 2.89772308,5.856 C3.16357056,6.11781949 3.48701348,6.24872727 3.86806154,6.24872727 C3.98142709,6.24872727 4.09109223,6.23597476 4.19705763,6.21046956 C4.43770533,6.74293253 4.73638479,7.30680555 5.09310071,7.9020979 C5.36373713,8.33667352 5.66129288,8.78328831 5.98577238,9.24194866 C5.75111146,9.59265703 5.49714727,9.95200607 5.22387692,10.32 C4.92258311,10.7301839 4.60357091,11.1316344 4.26683077,11.5243636 L3.86806154,11.9825455 L3.46929231,11.5243636 C3.13255216,11.1316344 2.81353997,10.7301839 2.51224615,10.32 C2.0780286,9.7352698 1.69255553,9.17236634 1.35581538,8.63127273 C0.948182577,7.95054205 0.629170383,7.31782111 0.398769231,6.73309091 C0.132921748,6.04363292 0,5.43272993 0,4.90036364 C0,4.20217833 0.172798272,3.5607302 0.5184,2.976 C0.864001728,2.39999712 1.32922784,1.94181988 1.91409231,1.60145455 C2.50781835,1.26108921 3.15913492,1.09090909 3.86806154,1.09090909 C3.99123513,1.09090909 4.11266959,1.09604647 4.23236503,1.10632125 Z" id="Combined-Shape"></path>
                <path d="M8.11421538,5.15781818 C8.3623397,5.15781818 8.5927374,5.09672788 8.80541538,4.97454545 C9.01809337,4.85236303 9.18646092,4.6887283 9.31052308,4.48363636 C9.43458524,4.27854443 9.49661538,4.0538194 9.49661538,3.80945455 C9.49661538,3.56508969 9.43458524,3.33818287 9.31052308,3.12872727 C9.18646092,2.91927168 9.01809337,2.75345516 8.80541538,2.63127273 C8.5927374,2.5090903 8.3623397,2.448 8.11421538,2.448 C7.86609107,2.448 7.63790873,2.5090903 7.42966154,2.63127273 C7.22141434,2.75345516 7.05526216,2.91927168 6.9312,3.12872727 C6.80713784,3.33818287 6.74510769,3.56508969 6.74510769,3.80945455 C6.74510769,4.18472915 6.87802944,4.50327142 7.14387692,4.76509091 C7.40972441,5.0269104 7.73316733,5.15781818 8.11421538,5.15781818 Z M8.11421538,0 C8.82314201,0 9.47445857,0.170180116 10.0681846,0.510545455 C10.6530491,0.850910793 11.1182752,1.30908803 11.4638769,1.88509091 C11.8094787,2.46982111 11.9822769,3.11126924 11.9822769,3.80945455 C11.9822769,4.34182084 11.8493552,4.95272383 11.5835077,5.64218182 C11.3531065,6.22691201 11.0340943,6.85963296 10.6264615,7.54036364 C10.2897214,8.08145725 9.90424832,8.64436071 9.47003077,9.22909091 C9.16873696,9.63927478 8.84972476,10.0407253 8.51298462,10.4334545 L8.11421538,10.8916364 L7.71544615,10.4334545 C7.37870601,10.0407253 7.05969381,9.63927478 6.7584,9.22909091 C6.32418244,8.64436071 5.93870938,8.08145725 5.60196923,7.54036364 C5.19433642,6.85963296 4.87532423,6.22691201 4.64492308,5.64218182 C4.37907559,4.95272383 4.24615385,4.34182084 4.24615385,3.80945455 C4.24615385,3.11126924 4.41895212,2.46982111 4.76455385,1.88509091 C5.11015557,1.30908803 5.57538169,0.850910793 6.16024615,0.510545455 C6.7539722,0.170180116 7.40528876,0 8.11421538,0 Z" id="location_on---material-copy-3"></path>
            </g>
            <polygon id="Rectangle" fill-rule="nonzero" opacity="0" points="0 0 14 0 14 14 7.98866026 14 0 14"></polygon>
        </g>
    </g>
</svg>