<?xml version="1.0" encoding="UTF-8"?>
<svg width="10px" height="10px" viewBox="0 0 10 10" version="1.1" xmlns="http://www.w3.org/2000/svg" xmlns:xlink="http://www.w3.org/1999/xlink">
    <!-- Generator: Sketch 52.1 (67048) - http://www.bohemiancoding.com/sketch -->
    <title>Group 11 Copy</title>
    <desc>Created with Sketch.</desc>
    <g id="Page-1" stroke="none" stroke-width="1" fill="none" fill-rule="evenodd">
        <g id="Group-11-Copy" transform="translate(-2.000000, -2.000000)">
            <rect id="Rectangle-Copy-2" fill="#D8D8D8" fill-rule="nonzero" opacity="0" x="0" y="0" width="14" height="14"></rect>
            <g id="Group-8" transform="translate(2.000000, 2.000000)" fill="#FFFFFF">
                <g id="Group-7">
                    <path d="M2.71116999,3.68615385 C2.75329086,4.08809765 2.86595609,4.53280663 3.04916733,5.02028846 C3.07660124,5.09171994 3.10543899,5.16393147 3.1356806,5.23692308 L0.384615385,5.23692308 L0.384615385,3.68615385 L2.71116999,3.68615385 Z M3.48540072,5.99384615 C3.6112965,6.24237524 3.75137287,6.49878505 3.90563045,6.76307692 C3.98640188,6.89623464 4.07161501,7.02304916 4.16056854,7.14769231 L0.384615385,7.14769231 L0.384615385,5.99384615 L3.48540072,5.99384615 Z M5.93767763,9.45538462 L6.17206152,9.7316809 L6.40644541,9.45538462 L7.30769231,9.45538462 L7.30769231,9.85230769 L0.384615385,9.85230769 L0.384615385,9.45538462 L5.93767763,9.45538462 Z M4.74894867,7.92307692 C4.81788698,8.01373928 4.88789059,8.10735546 4.95873876,8.20523859 C5.07756049,8.37120314 5.19946157,8.53561047 5.32444274,8.69846154 L0.384615385,8.69846154 L0.384615385,7.92307692 L4.74894867,7.92307692 Z M7.30769231,8.31292949 L7.30769231,8.69846154 L7.01968029,8.69846154 C7.11757383,8.57090578 7.21357772,8.44239525 7.30769231,8.31292949 Z" id="Combined-Shape"></path>
                    <path d="M6.21076923,4.24307692 C6.41179588,4.24307692 6.59846068,4.19282102 6.77076923,4.09230769 C6.94307778,3.99179437 7.07948668,3.85718033 7.18,3.68846154 C7.28051332,3.51974275 7.33076923,3.3348728 7.33076923,3.13384615 C7.33076923,2.93281951 7.28051332,2.74615471 7.18,2.57384615 C7.07948668,2.4015376 6.94307778,2.26512871 6.77076923,2.16461538 C6.59846068,2.06410206 6.41179588,2.01384615 6.21076923,2.01384615 C6.00974258,2.01384615 5.82487264,2.06410206 5.65615385,2.16461538 C5.48743505,2.26512871 5.35282102,2.4015376 5.25230769,2.57384615 C5.15179437,2.74615471 5.10153846,2.93281951 5.10153846,3.13384615 C5.10153846,3.44256565 5.20922969,3.70461431 5.42461538,3.92 C5.64000108,4.13538569 5.90204974,4.24307692 6.21076923,4.24307692 Z M6.21076923,5.40012479e-13 C6.78513108,5.40012479e-13 7.31281811,0.1399986 7.79384615,0.42 C8.26769468,0.7000014 8.64461398,1.07692071 8.92461538,1.55076923 C9.20461678,2.03179728 9.34461538,2.55948431 9.34461538,3.13384615 C9.34461538,3.57179706 9.23692415,4.07435614 9.02153846,4.64153846 C8.83487086,5.12256651 8.57641191,5.64307412 8.24615385,6.20307692 C7.97333197,6.64820735 7.6610274,7.11127965 7.30923077,7.59230769 C7.06512698,7.92974528 6.80666803,8.25999838 6.53384615,8.58307692 L6.21076923,8.96 L5.88769231,8.58307692 C5.61487043,8.25999838 5.35641148,7.92974528 5.11230769,7.59230769 C4.76051106,7.11127965 4.44820649,6.64820735 4.17538462,6.20307692 C3.84512655,5.64307412 3.5866676,5.12256651 3.4,4.64153846 C3.18461431,4.07435614 3.07692308,3.57179706 3.07692308,3.13384615 C3.07692308,2.55948431 3.21692168,2.03179728 3.49692308,1.55076923 C3.77692448,1.07692071 4.15384378,0.7000014 4.62769231,0.42 C5.10872035,0.1399986 5.63640738,5.40012479e-13 6.21076923,5.40012479e-13 Z" id="icon"></path>
                </g>
            </g>
        </g>
    </g>
</svg>