<?xml version="1.0" encoding="UTF-8"?>
<svg width="12px" height="12px" viewBox="0 0 12 12" version="1.1" xmlns="http://www.w3.org/2000/svg" xmlns:xlink="http://www.w3.org/1999/xlink">
    <!-- Generator: Sketch 52.1 (67048) - http://www.bohemiancoding.com/sketch -->
    <title>Group 3 Copy</title>
    <desc>Created with Sketch.</desc>
    <g id="Page-1" stroke="none" stroke-width="1" fill="none" fill-rule="evenodd">
        <g id="Group-3-Copy" transform="translate(-1.000000, -1.000000)">
            <rect id="Rectangle-Copy" fill="#D8D8D8" fill-rule="nonzero" opacity="0" x="0" y="0" width="14" height="14"></rect>
            <g id="Group-7-Copy" transform="translate(1.000000, 1.500000)" fill="#FFFFFF">
                <path d="M8.69639085,0 C9.2879431,0 9.83142358,0.144855694 10.3268486,0.434571429 C10.8148792,0.724287163 11.2030795,1.11428326 11.4914613,1.60457143 C11.779843,2.1022882 11.9240317,2.64828274 11.9240317,3.24257143 C11.9240317,3.69571655 11.8131173,4.21571135 11.5912852,4.80257143 C11.3990307,5.3002882 11.1328362,5.83885425 10.7926937,6.41828571 C10.5117063,6.87885945 10.1900546,7.35799751 9.82772887,7.85571429 C9.57631917,8.20485889 9.31012464,8.54656976 9.02913732,8.88085714 L8.69639085,9.27085714 L8.36364437,8.88085714 C8.08265705,8.54656976 7.81646252,8.20485889 7.56505282,7.85571429 C7.20272706,7.35799751 6.88107535,6.87885945 6.60008803,6.41828571 C6.25994548,5.83885425 5.99375096,5.3002882 5.80149648,4.80257143 C5.57966438,4.21571135 5.46875,3.69571655 5.46875,3.24257143 C5.46875,2.64828274 5.6129387,2.1022882 5.90132042,1.60457143 C6.18970215,1.11428326 6.57790249,0.724287163 7.0659331,0.434571429 C7.56135811,0.144855694 8.10483859,0 8.69639085,0 Z M8.69639085,4.48809524 C9.37055745,4.48809524 9.91707746,3.9390471 9.91707746,3.2617619 C9.91707746,2.58447671 9.37055745,2.03542857 8.69639085,2.03542857 C8.02222424,2.03542857 7.47570423,2.58447671 7.47570423,3.2617619 C7.47570423,3.9390471 8.02222424,4.48809524 8.69639085,4.48809524 Z" id="Combined-Shape"></path>
                <path d="M4.70699214,2.65985674 C4.69399737,2.79165155 4.6875,2.92557975 4.6875,3.06164148 C4.6875,3.59930443 4.82173405,4.21628544 5.09020619,4.91260302 C5.32288203,5.50315085 5.64504376,6.14216689 6.05670103,6.82967033 C6.13658938,6.95804929 6.21919375,7.08764387 6.30451429,7.21845428 L4.296875,8.70032427 C2.86839564,7.63948908 1.43611829,6.58230275 0,5.52873356 L4.296875,2.35714286 L4.70699214,2.65985674 Z" id="Combined-Shape"></path>
                <path d="M6.74345462,7.86791288 C6.89663295,8.08712391 7.05699752,8.30955235 7.22454897,8.53519918 C7.24430586,8.5620984 7.26413819,8.58896044 7.28404596,8.61578529 L4.296875,10.8206629 L0,7.64907224 L0.779166667,7.07142857 L4.296875,9.68717348 L6.74345462,7.86791288 Z" id="Combined-Shape"></path>
            </g>
        </g>
    </g>
</svg>