<?xml version="1.0" encoding="UTF-8"?>
<svg width="12px" height="10px" viewBox="0 0 12 10" version="1.1" xmlns="http://www.w3.org/2000/svg" xmlns:xlink="http://www.w3.org/1999/xlink">
    <!-- Generator: Sketch 52.1 (67048) - http://www.bohemiancoding.com/sketch -->
    <title>Group 5 Copy 2</title>
    <desc>Created with Sketch.</desc>
    <g id="Page-1" stroke="none" stroke-width="1" fill="none" fill-rule="evenodd">
        <g id="Group-5-Copy-2" transform="translate(-1.000000, -2.000000)">
            <rect id="Rectangle-Copy-2" fill="#D8D8D8" fill-rule="nonzero" opacity="0" x="0" y="0" width="14" height="14"></rect>
            <g id="Group-9" transform="translate(1.500000, 2.500000)" fill="#FFFFFF">
                <path d="M2.53632142,2.28436364 L0.900136916,3.67232306 C1.01726147,3.75891023 1.1340059,3.84610006 1.25041612,3.93381818 L0.392857143,3.93381818 L0.392857143,2.28436364 L2.53632142,2.28436364 Z M2.29461523,4.73890909 C2.81023513,5.1441094 3.32190384,5.55544582 3.83377974,5.96618182 L0.392857143,5.96618182 L0.392857143,4.73890909 L2.29461523,4.73890909 Z M4.8666846,6.79090909 C5.21790807,7.0689271 5.57053216,7.34455251 5.92588335,7.61563636 L0.392857143,7.61563636 L0.392857143,6.79090909 L4.8666846,6.79090909 Z M7.46428571,7.00369461 L7.46428571,7.61563636 L6.68329538,7.61563636 L7.46428571,7.00369461 Z M0.392857143,8.84290909 L0.392857143,8.42072727 L7.46428571,8.42072727 L7.46428571,8.84290909 L0.392857143,8.84290909 Z" id="Combined-Shape"></path>
                <path d="M6.28571429,7.36363636 C4.71846835,6.13214005 3.1470555,4.90487959 1.57142857,3.68181818 L6.28571429,0 L11,3.68181818 L6.28571429,7.36363636 Z" id="layers---material-copy"></path>
            </g>
        </g>
    </g>
</svg>