<?xml version="1.0" encoding="UTF-8"?>
<svg width="28px" height="28px" viewBox="0 0 28 28" version="1.1" xmlns="http://www.w3.org/2000/svg" xmlns:xlink="http://www.w3.org/1999/xlink">
    <!-- Generator: Sketch 52.1 (67048) - http://www.bohemiancoding.com/sketch -->
    <title>Group 7</title>
    <desc>Created with Sketch.</desc>
    <g id="Page-1" stroke="none" stroke-width="1" fill="none" fill-rule="evenodd">
        <g id="反馈" transform="translate(-641.000000, -2700.000000)" fill="#FFD518">
            <g id="Group-20-Copy-2" transform="translate(605.000000, 2664.000000)">
                <g id="Group-7" transform="translate(36.000000, 36.000000)">
                    <path d="M28,14 C28,21.732 21.732,28 14,28 C6.268,28 0,21.732 0,14 C0,6.268 6.268,0 14,0 C21.732,0 28,6.268 28,14 Z M13.9941,21.8936 C14.1951,21.8936 14.3841,21.8566 14.5611,21.7706 C14.7391,21.6986 14.9051,21.5886 15.0341,21.4436 C15.1771,21.3096 15.2831,21.1396 15.3521,20.9566 C15.4361,20.7746 15.4721,20.5806 15.4721,20.3726 C15.4721,19.9716 15.3181,19.5826 15.0341,19.3026 C14.6921,18.9506 14.1831,18.7796 13.7101,18.8776 C13.6161,18.9026 13.5211,18.9256 13.4271,18.9746 C13.3441,19.0116 13.2491,19.0596 13.1791,19.1086 C13.0961,19.1686 13.0131,19.2306 12.9541,19.3026 C12.8831,19.3646 12.8241,19.4496 12.7651,19.5346 C12.7171,19.6076 12.6701,19.7046 12.6351,19.7896 C12.5871,19.8866 12.5641,19.9846 12.5521,20.0816 C12.5281,20.1786 12.5161,20.2766 12.5161,20.3726 C12.5161,20.5806 12.5521,20.7746 12.6351,20.9566 C12.7051,21.1396 12.8121,21.3096 12.9541,21.4436 C13.2261,21.7356 13.6041,21.8936 13.9941,21.8936 Z M13.8994,17.0293 C14.0544,17.0293 14.2114,17.0043 14.3674,16.9513 C14.8334,16.7923 18.9234,15.2893 18.9234,11.8633 C18.9274,9.6703 17.5774,7.7073 15.5664,6.9803 C14.3004,6.5233 12.9364,6.6003 11.7284,7.1963 C10.5174,7.7933 9.6064,8.8383 9.1604,10.1403 C8.8894,10.9323 9.2944,11.8003 10.0634,12.0793 C10.8324,12.3553 11.6774,11.9403 11.9474,11.1503 C12.1304,10.6133 12.5064,10.1833 13.0044,9.9363 C13.5034,9.6923 14.0644,9.6593 14.5864,9.8493 C15.4144,10.1483 15.9694,10.9553 15.9684,11.8613 C15.9684,12.8473 14.2234,13.7903 13.4314,14.0673 C12.6584,14.3323 12.2394,15.1933 12.4974,15.9913 C12.7044,16.6273 13.2814,17.0293 13.8994,17.0293 Z" id="Combined-Shape"></path>
                </g>
            </g>
        </g>
    </g>
</svg>