<?xml version="1.0" encoding="UTF-8"?>
<svg width="13px" height="12px" viewBox="0 0 13 12" version="1.1" xmlns="http://www.w3.org/2000/svg" xmlns:xlink="http://www.w3.org/1999/xlink">
    <!-- Generator: Sketch 52.1 (67048) - http://www.bohemiancoding.com/sketch -->
    <title>Combined Shape</title>
    <desc>Created with Sketch.</desc>
    <g id="Page-1" stroke="none" stroke-width="1" fill="none" fill-rule="evenodd">
        <g id="表单控件" transform="translate(-2047.000000, -1120.000000)" fill="#F35351">
            <g id="Group-17-Copy-3" transform="translate(2047.000000, 1051.000000)">
                <g id="error" transform="translate(0.000000, 66.000000)">
                    <path d="M5.43622277,3.63828918 C5.54011636,3.45599802 5.68382545,3.30287345 5.85490771,3.19283588 C6.44218645,2.81234451 7.20739074,3.01253335 7.56386395,3.63828918 L12.8331975,13.0113692 C12.9402017,13.2089065 12.9974365,13.432296 12.999925,13.6603257 C13.0073904,14.3921418 12.4568166,14.9920455 11.7693769,15 L1.23070978,15 C1.01670143,14.9973485 0.807670013,14.9363638 0.622279056,14.8230119 C0.0269127945,14.4564409 -0.176519565,13.6457424 0.166889188,13.0113692 L5.43622277,3.63828918 Z M6.52786384,10.3599277 C6.88666384,10.3599277 7.17786384,10.0636217 7.17786384,9.69705074 L7.17786384,7.04554296 C7.17786384,6.67963489 6.88666384,6.38266602 6.52786384,6.38266602 C6.16841384,6.38266602 5.87786384,6.67963489 5.87786384,7.04554296 L5.87786384,9.69705074 C5.87786384,10.0636217 6.16841384,10.3599277 6.52786384,10.3599277 Z M6.52786384,13.0114355 C6.61236384,13.0114355 6.69686384,12.997515 6.77421384,12.9650341 C6.85286384,12.9252615 6.92436384,12.8788601 6.98871384,12.8192011 C7.04721384,12.7522506 7.09336384,12.679997 7.12521384,12.6004518 C7.15771384,12.5209065 7.17786384,12.4347325 7.17786384,12.3485585 C7.17786384,12.1762105 7.10571384,12.0031996 6.98871384,11.8779159 C6.83921384,11.7254542 6.61236384,11.6525377 6.40436384,11.6989391 C6.35886384,11.7055679 6.31986384,11.7188254 6.28086384,11.7387117 C6.24186384,11.7519693 6.20286384,11.7718556 6.16321384,11.7983706 C6.13136384,11.818257 6.09886384,11.8514008 6.06636384,11.8779159 C5.94936384,12.0031996 5.87786384,12.1689189 5.87786384,12.3485585 C5.87786384,12.4347325 5.89736384,12.5209065 5.92986384,12.6004518 C5.96236384,12.679997 6.00786384,12.7522506 6.06636384,12.8192011 C6.18921384,12.9444849 6.35171384,13.0114355 6.52786384,13.0114355 Z" id="Combined-Shape"></path>
                </g>
            </g>
        </g>
    </g>
</svg>