<?xml version="1.0" encoding="utf-8"?>
<!-- Generator: Adobe Illustrator 19.2.1, SVG Export Plug-In . SVG Version: 6.00 Build 0)  -->
<!DOCTYPE svg PUBLIC "-//W3C//DTD SVG 1.1//EN" "http://www.w3.org/Graphics/SVG/1.1/DTD/svg11.dtd">
<svg version="1.1" id="Layer_1" xmlns="http://www.w3.org/2000/svg" xmlns:xlink="http://www.w3.org/1999/xlink" x="0px" y="0px"
	 width="15px" height="15px" viewBox="0 0 15 15" style="enable-background:new 0 0 15 15;" xml:space="preserve">
<path d="M9.2,5.1V4.6L9.1,3a2.65,2.65,0,0,0,1.2-2h0C10.3.5,9,.1,7.5.1S4.7.5,4.7,1A2.4,2.4,0,0,0,5.9,3h0L5.8,4.6v.5a3.79,3.79,0,0,0-2,3.3c0,.9,1.3,1.6,3.2,1.8l.2,4.7H8l.2-4.7c1.8-.1,3.2-.9,3.2-1.8-.3,0-.3-2.4-2.2-3.3Z"/>
</svg>