<?xml version="1.0" encoding="utf-8"?>
<!-- Generator: Adobe Illustrator 19.2.1, SVG Export Plug-In . SVG Version: 6.00 Build 0)  -->
<!DOCTYPE svg PUBLIC "-//W3C//DTD SVG 1.1//EN" "http://www.w3.org/Graphics/SVG/1.1/DTD/svg11.dtd">
<svg version="1.1" id="Layer_1" xmlns="http://www.w3.org/2000/svg" xmlns:xlink="http://www.w3.org/1999/xlink" x="0px" y="0px"
	 width="15px" height="15px" viewBox="0 0 15 15" style="enable-background:new 0 0 15 15;" xml:space="preserve">
<path d="M10.4,7.4H7.5v3.3h1V9a.22.22,0,0,1,.2-.2h.6a.22.22,0,0,1,.2.2v1.7h1V7.4ZM8.9,4.7a.22.22,0,0,0-.2-.2H7.8a.22.22,0,0,0-.2.2v.9a.22.22,0,0,0,.2.2h.9a.22.22,0,0,0,.2-.2ZM6.2,8.9A.22.22,0,0,0,6,8.7H5.1a.22.22,0,0,0-.2.2v.9a.22.22,0,0,0,.2.2H6a.22.22,0,0,0,.2-.2Zm0-2.1A.22.22,0,0,0,6,6.6H5.1a.22.22,0,0,0-.2.2h0v.9a.22.22,0,0,0,.2.2H6a.22.22,0,0,0,.2-.2Zm0-2.1A.22.22,0,0,0,6,4.5H5.1a.22.22,0,0,0-.2.2v.9h0a.22.22,0,0,0,.2.2H6a.22.22,0,0,0,.2-.2Zm5.2,6.7H3.5c-.2,0-.3-.2-.3-.4s.1-.4.3-.4h.2V3.7A.68.68,0,0,1,4.4,3h5a.68.68,0,0,1,.7.7V6.5h.5a.68.68,0,0,1,.7.7v3.4h.2c.2,0,.3.2.3.4a.37.37,0,0,1-.4.4Zm-4,3.3A7.34,7.34,0,0,1,.1,7.4,7.34,7.34,0,0,1,7.4.1a7.34,7.34,0,0,1,7.3,7.3A7.34,7.34,0,0,1,7.4,14.7ZM7.4.8A6.6,6.6,0,1,0,14,7.4,6.59,6.59,0,0,0,7.4.8Z"/>
</svg>