<?xml version="1.0" encoding="utf-8"?>
<!-- Generator: Adobe Illustrator 19.2.1, SVG Export Plug-In . SVG Version: 6.00 Build 0)  -->
<!DOCTYPE svg PUBLIC "-//W3C//DTD SVG 1.1//EN" "http://www.w3.org/Graphics/SVG/1.1/DTD/svg11.dtd">
<svg version="1.1" id="Layer_1" xmlns="http://www.w3.org/2000/svg" xmlns:xlink="http://www.w3.org/1999/xlink" x="0px" y="0px"
	 width="15px" height="15px" viewBox="0 0 15 15" style="enable-background:new 0 0 15 15;" xml:space="preserve">
<path d="M12,4.7V4.6a1.7,1.7,0,0,0-.1-.7h0V3.8h0a2.54,2.54,0,0,0-.2-.7h0V2.9c-.1-.2-.1-.4-.2-.5h0V2.3a2.09,2.09,0,0,0-.4-.6h0V1.6a2.84,2.84,0,0,0-1-.9h0A6.66,6.66,0,0,0,8.9.1H8.8C8.6.1,8.4,0,8.2,0H6.9a2,2,0,0,0-.7.1h0L6,.2A2.73,2.73,0,0,0,4.8.8h0a9,9,0,0,0-1,.9v.1c-.1.1-.2.3-.4.5h0v.1c-.1.1-.1.3-.2.5h0l-.1.2a2.07,2.07,0,0,1-.2.6h0v.1c0,.2-.1.4-.1.7h0v.9h0v.1c0,.2.1.4.1.6h0v.2c.1.2.2.5.3.7h0s3.5,5.9,4,8.1h0c.6-2.3,4-8.1,4-8.1h0a1.42,1.42,0,0,0,.2-.6h0V6.2a4.33,4.33,0,0,0,.1-.5h0V5h0c.5-.2.5-.2.5-.3ZM8.8,7,7.5,6.1,6.1,7l.4-1.5L5.2,4.4l1.6-.1.6-1.5L8,4.3l1.6.1-1.3,1Z"/>
</svg>