<?xml version="1.0" encoding="utf-8"?>
<!-- Generator: Adobe Illustrator 19.2.1, SVG Export Plug-In . SVG Version: 6.00 Build 0)  -->
<!DOCTYPE svg PUBLIC "-//W3C//DTD SVG 1.1//EN" "http://www.w3.org/Graphics/SVG/1.1/DTD/svg11.dtd">
<svg version="1.1" id="Layer_1" xmlns="http://www.w3.org/2000/svg" xmlns:xlink="http://www.w3.org/1999/xlink" x="0px" y="0px"
	 width="15px" height="15px" viewBox="0 0 15 15" style="enable-background:new 0 0 15 15;" xml:space="preserve">
<path d="M7.3,0A5.38,5.38,0,0,0,1.9,5.4h0c0,2.5,2.8,6.3,4.3,8.2a3.81,3.81,0,0,0,.5.6l.3.3H7a.1.1,0,0,0,.1.1h0l.1.1h0c.1,0,.1,0,.2-.1h0a2.18,2.18,0,0,0,.4-.5h0a3.81,3.81,0,0,1,.5-.6c1.5-1.9,4.2-5.7,4.2-8.2A5.07,5.07,0,0,0,7.3,0Zm2.9,4.9L6.9,8.1c-.1.1-.2.2-.3.2h0a.4.4,0,0,1-.4-.2h0L4.5,6.4A.76.76,0,0,1,4.3,6a.58.58,0,0,1,.6-.6.52.52,0,0,1,.4.2h0L6.6,6.9,9.4,4.1c.1-.1.2-.1.4-.1a.58.58,0,0,1,.6.6c-.1.1-.2.2-.2.3Z"/>
</svg>