<?xml version="1.0" encoding="utf-8"?>
<!-- Generator: Adobe Illustrator 19.2.1, SVG Export Plug-In . SVG Version: 6.00 Build 0)  -->
<!DOCTYPE svg PUBLIC "-//W3C//DTD SVG 1.1//EN" "http://www.w3.org/Graphics/SVG/1.1/DTD/svg11.dtd">
<svg version="1.1" id="Layer_1" xmlns="http://www.w3.org/2000/svg" xmlns:xlink="http://www.w3.org/1999/xlink" x="0px" y="0px"
	 width="15px" height="15px" viewBox="0 0 15 15" style="enable-background:new 0 0 15 15;" xml:space="preserve">
<path d="M11.6,6.7a1.42,1.42,0,0,0,.2-.6h0V5.9a4.33,4.33,0,0,0,.1-.5h0V4.7h0V4.6a1.7,1.7,0,0,0-.1-.7h0V3.8h0a1.85,1.85,0,0,0-.2-.7h0l-.1-.2c-.1-.2-.1-.4-.2-.5h0V2.3a2.09,2.09,0,0,0-.4-.6h0V1.6a2.84,2.84,0,0,0-1-.9h0A6.66,6.66,0,0,0,8.7.1H8.6C8.4.1,8.2,0,8,0H7c-.2,0-.4.1-.7.1h0L6.2.2A2.73,2.73,0,0,0,5,.8H5a9,9,0,0,0-1,.9v.1c-.1.1-.2.3-.4.5h0v.1c-.1.1-.1.3-.2.5h0v.2a2.07,2.07,0,0,1-.2.6h0v.1a1,1,0,0,0-.3.8h0v.9h0v.1c0,.2.1.4.1.6H3v.2c.1.2.1.5.3.7h0s3.5,5.9,4,8.1h0c.7-2.6,4.2-8.5,4.3-8.5Z"/>
</svg>