<?xml version="1.0" encoding="utf-8"?>
<!-- Generator: Adobe Illustrator 19.2.1, SVG Export Plug-In . SVG Version: 6.00 Build 0)  -->
<!DOCTYPE svg PUBLIC "-//W3C//DTD SVG 1.1//EN" "http://www.w3.org/Graphics/SVG/1.1/DTD/svg11.dtd">
<svg version="1.1" id="Layer_1" xmlns="http://www.w3.org/2000/svg" xmlns:xlink="http://www.w3.org/1999/xlink" x="0px" y="0px"
	 width="15px" height="15px" viewBox="0 0 15 15" style="enable-background:new 0 0 15 15;" xml:space="preserve">
<path d="M7.4,0a7.4,7.4,0,1,0,7.4,7.4A7.38,7.38,0,0,0,7.4,0Zm0,14.1a6.7,6.7,0,1,1,6.7-6.7A6.7,6.7,0,0,1,7.4,14.1ZM2.3,7.7a4.37,4.37,0,0,0,3.4,4.4v.7H8.5v-.7a4.24,4.24,0,0,0,3.4-4.5l-.2.1ZM12.5,4.2,3.7,6.4l.1.3,8.8-2.2-.1-.3Zm-.5-1L3.4,6.1l.1.3,8.6-2.9Z"/>
</svg>