<?xml version="1.0" encoding="utf-8"?>
<!-- Generator: Adobe Illustrator 19.2.1, SVG Export Plug-In . SVG Version: 6.00 Build 0)  -->
<!DOCTYPE svg PUBLIC "-//W3C//DTD SVG 1.1//EN" "http://www.w3.org/Graphics/SVG/1.1/DTD/svg11.dtd">
<svg version="1.1" id="Layer_1" xmlns="http://www.w3.org/2000/svg" xmlns:xlink="http://www.w3.org/1999/xlink" x="0px" y="0px"
	 width="15px" height="15px" viewBox="0 0 15 15" style="enable-background:new 0 0 15 15;" xml:space="preserve">
<path d="M4.8.7A5.28,5.28,0,0,1,7.4,0h0A5.59,5.59,0,0,1,10,.7h0a5.75,5.75,0,0,1,1.9,1.9h0a5.28,5.28,0,0,1,.7,2.6h0A5.83,5.83,0,0,1,12,7.8h0a16.94,16.94,0,0,1-1.3,2.7v-.1c-.5.7-1,1.5-1.5,2.3a10.1,10.1,0,0,1-1.3,1.6l-.6.6-.5-.6c-.5-.6-.9-1.1-1.3-1.6-.6-.8-1.1-1.6-1.6-2.3A27.18,27.18,0,0,0,2.8,7.9V7.8a5.83,5.83,0,0,1-.6-2.6h0a5.59,5.59,0,0,1,.7-2.6h0A5.75,5.75,0,0,1,4.8.7ZM7.4,7.1a1.22,1.22,0,0,0,.9-.3h0A2,2,0,0,0,9,6.2H9a2.92,2.92,0,0,0,.2-.9h0A2.39,2.39,0,0,0,9,4.4H9c-.1-.3-.4-.5-.6-.7h0a1.61,1.61,0,0,0-.9-.3h0a1.4,1.4,0,0,0-.9.3h0a1.21,1.21,0,0,0-.7.7h0a1.22,1.22,0,0,0-.3.9h0v.1A1.77,1.77,0,0,0,7.4,7.1Z"/>
</svg>