<?xml version="1.0" encoding="utf-8"?>
<!-- Generator: Adobe Illustrator 19.2.1, SVG Export Plug-In . SVG Version: 6.00 Build 0)  -->
<!DOCTYPE svg PUBLIC "-//W3C//DTD SVG 1.1//EN" "http://www.w3.org/Graphics/SVG/1.1/DTD/svg11.dtd">
<svg version="1.1" id="Layer_1" xmlns="http://www.w3.org/2000/svg" xmlns:xlink="http://www.w3.org/1999/xlink" x="0px" y="0px"
	 width="15px" height="15px" viewBox="0 0 15 15" style="enable-background:new 0 0 15 15;" xml:space="preserve">
<path d="M7.4,0a7.4,7.4,0,1,0,7.4,7.4A7.38,7.38,0,0,0,7.4,0Zm0,13.8A6.44,6.44,0,0,1,1,7.4,6.44,6.44,0,0,1,7.4,1a6.44,6.44,0,0,1,6.4,6.4A6.44,6.44,0,0,1,7.4,13.8ZM5.5,7.6A1,1,0,0,0,6.6,6.5,1.11,1.11,0,0,0,5.5,5.4,1.2,1.2,0,0,0,4.3,6.5,1.2,1.2,0,0,0,5.5,7.6Zm4.6-2.3H7V8H3.9V4.6H3.2v5.7h.7V9.2h6.9v1.1h.7V7A1.46,1.46,0,0,0,10.1,5.3Z"/>
</svg>