<?xml version="1.0" encoding="UTF-8"?>
<svg width="14px" height="12px" viewBox="0 0 14 12" version="1.1" xmlns="http://www.w3.org/2000/svg" xmlns:xlink="http://www.w3.org/1999/xlink">
    <!-- Generator: Sketch 52.1 (67048) - http://www.bohemiancoding.com/sketch -->
    <title>Group 11 Copy 2</title>
    <desc>Created with Sketch.</desc>
    <g id="Page-1" stroke="none" stroke-width="1" fill="none" fill-rule="evenodd">
        <g id="Group-16" transform="translate(-11.000000, -105.000000)">
            <g id="Group-11-Copy-2" transform="translate(10.000000, 103.000000)">
                <rect id="Rectangle-Copy-26" fill-opacity="0" fill="#D8D8D8" fill-rule="nonzero" x="0" y="0" width="16" height="16"></rect>
                <g id="Group-11-Copy" transform="translate(1.000000, 2.000000)">
                    <path d="M11.5608,4.0654 C11.9778,3.6484 12.6528,3.6484 13.0698,4.0654 C13.4868,4.4824 13.4868,5.1574 13.0698,5.5744 L7.9768,10.6674 L5.9018,11.2334 L6.4678,9.1584 L11.5608,4.0654 Z" id="Stroke-16" stroke="#E0E3E8" stroke-width="1.2" stroke-linecap="round" stroke-linejoin="round"></path>
                    <path d="M4.2722,11.0396 C2.1522,10.3606 0.6172,8.3736 0.6172,6.0276 C0.6172,3.1226 2.9732,0.7666 5.8782,0.7666 C7.6672,0.7666 9.2472,1.6596 10.1972,3.0226" id="Stroke-18" stroke="#E0E3E8" stroke-width="1.2" stroke-linecap="round" stroke-linejoin="round"></path>
                    <path d="M4.7004,8.8159 C3.5904,8.3419 2.8614,7.2559 2.8614,6.0319 C2.8614,4.3559 4.2254,2.9919 5.9024,2.9919 C7.0134,2.9919 8.0114,3.5799 8.5494,4.5369 L5.1984,7.8889 C4.9774,8.1089 4.8174,8.3849 4.7354,8.6869 L4.7004,8.8159 Z" id="Fill-20" fill="#E0E3E8" opacity="0.3"></path>
                </g>
            </g>
        </g>
    </g>
</svg>