<svg width="48" height="48" viewBox="0 0 48 48" fill="none" xmlns="http://www.w3.org/2000/svg">
<path fill-rule="evenodd" clip-rule="evenodd" d="M16 4C17.1046 4 18 4.89543 18 6V12C18 15.3137 15.3137 18 12 18H6C4.89543 18 4 17.1046 4 16C4 14.8954 4.89543 14 6 14H12C13.1046 14 14 13.1046 14 12V6C14 4.89543 14.8954 4 16 4ZM32 4C33.1046 4 34 4.89543 34 6V12C34 13.1046 34.8954 14 36 14H42C43.1046 14 44 14.8954 44 16C44 17.1046 43.1046 18 42 18H36C32.6863 18 30 15.3137 30 12V6C30 4.89543 30.8954 4 32 4ZM4 32C4 30.8954 4.89543 30 6 30H12C15.3137 30 18 32.6863 18 36V42C18 43.1046 17.1046 44 16 44C14.8954 44 14 43.1046 14 42V36C14 34.8954 13.1046 34 12 34H6C4.89543 34 4 33.1046 4 32ZM36 34C34.8954 34 34 34.8954 34 36V42C34 43.1046 33.1046 44 32 44C30.8954 44 30 43.1046 30 42V36C30 32.6863 32.6863 30 36 30H42C43.1046 30 44 30.8954 44 32C44 33.1046 43.1046 34 42 34H36Z" fill="#E0E3E8"/>
</svg>
