<?xml version="1.0" encoding="UTF-8"?>
<svg width="14px" height="14px" viewBox="0 0 14 14" version="1.1" xmlns="http://www.w3.org/2000/svg" xmlns:xlink="http://www.w3.org/1999/xlink">
    <!-- Generator: Sketch 52.1 (67048) - http://www.bohemiancoding.com/sketch -->
    <title>Group 14 Copy</title>
    <desc>Created with Sketch.</desc>
    <g id="Page-1" stroke="none" stroke-width="1" fill="none" fill-rule="evenodd">
        <g id="Group-16" transform="translate(-11.000000, -197.000000)">
            <g id="Group-14-Copy" transform="translate(10.000000, 196.000000)">
                <rect id="Rectangle-Copy-28" fill-opacity="0" fill="#D8D8D8" fill-rule="nonzero" x="0" y="0" width="16" height="16"></rect>
                <g id="Stroke-35-Copy" transform="translate(2.000000, 2.000000)" stroke="#E0E3E8" stroke-linecap="round" stroke-linejoin="round" stroke-width="1.2">
                    <path d="M0.1638,8.5938 L0.1638,10.5388 C0.1638,11.2558 0.7448,11.8358 1.4608,11.8358 L3.4058,11.8358 M8.5938,11.8358 L10.5388,11.8358 C11.2548,11.8358 11.8358,11.2558 11.8358,10.5388 L11.8358,8.5938 M11.8358,3.4068 L11.8358,1.4608 C11.8358,0.7448 11.2548,0.1638 10.5388,0.1638 L8.5938,0.1638 M3.4058,0.1638 L1.4608,0.1638 C0.7448,0.1638 0.1638,0.7448 0.1638,1.4608 L0.1638,3.4068" id="Stroke-34"></path>
                </g>
            </g>
        </g>
    </g>
</svg>