<?xml version="1.0" encoding="UTF-8"?>
<svg width="12px" height="14px" viewBox="0 0 12 14" version="1.1" xmlns="http://www.w3.org/2000/svg" xmlns:xlink="http://www.w3.org/1999/xlink">
    <!-- Generator: Sketch 52.1 (67048) - http://www.bohemiancoding.com/sketch -->
    <title>Group 9</title>
    <desc>Created with Sketch.</desc>
    <defs>
        <polygon id="path-1" points="0 0 6.9417 0 6.9417 14 0 14"></polygon>
        <polygon id="path-3" points="0.2914 0.1079 4.157 0.1079 4.157 13.9999 0.2914 13.9999"></polygon>
    </defs>
    <g id="Page-1" stroke="none" stroke-width="1" fill="none" fill-rule="evenodd">
        <g id="收起工具栏" transform="translate(-230.000000, -171.000000)">
            <g id="Group-9" transform="translate(229.000000, 171.000000)">
                <rect id="Rectangle" fill="#D8D8D8" fill-rule="nonzero" opacity="0" x="0" y="0" width="14" height="14"></rect>
                <g id="Group-7" transform="translate(1.000000, 0.000000)">
                    <g id="Group-8">
                        <g id="Group-3">
                            <mask id="mask-2" fill="white">
                                <use xlink:href="#path-1"></use>
                            </mask>
                            <g id="Clip-2"></g>
                            <path d="M4.8467,5.394 C4.5337,5.617 4.1707,5.752 3.7747,5.801 L3.7747,12.936 L3.1067,12.939 L3.1067,5.798 C2.7067,5.737 2.3477,5.582 2.0417,5.352 C1.4527,4.915 1.0687,4.22 1.0687,3.435 C1.0647,2.722 1.3737,2.08 1.8677,1.638 L1.8677,3.971 L5.0697,3.971 L5.0697,1.638 C5.5637,2.08 5.8697,2.718 5.8727,3.431 C5.8727,4.247 5.4657,4.963 4.8467,5.394 M4.0047,0 L4.0007,2.903 L2.9327,2.899 L2.9327,0.007 C1.2717,0.264 -0.0043,1.699 -0.0003,3.431 C-0.0003,4.835 0.8377,6.043 2.0417,6.59 L2.0417,13.468 C2.0417,13.762 2.2797,14 2.5747,14 L4.3107,14 C4.6047,14.007 4.8427,13.769 4.8427,13.468 L4.8427,6.613 C6.0767,6.081 6.9377,4.858 6.9417,3.427 C6.9417,1.691 5.6697,0.26 4.0047,0" id="Fill-1" fill="#E0E3E8" mask="url(#mask-2)"></path>
                        </g>
                        <g id="Group-6" transform="translate(7.000000, 0.000000)">
                            <mask id="mask-4" fill="white">
                                <use xlink:href="#path-3"></use>
                            </mask>
                            <g id="Clip-5"></g>
                            <path d="M3.1074,12.0669 C3.1074,12.5539 2.7114,12.9499 2.2244,12.9499 C1.7374,12.9499 1.3404,12.5539 1.3404,12.0669 L1.3404,7.8109 L3.1074,7.8109 L3.1074,12.0669 Z M1.7044,0.9829 L2.7444,0.9829 L2.7444,1.0909 C2.7444,1.3779 2.5104,1.6109 2.2234,1.6109 C1.9374,1.6109 1.7044,1.3779 1.7044,1.0909 L1.7044,0.9829 Z M2.6614,6.7609 L2.6614,2.4089 C3.2154,2.2239 3.6194,1.7069 3.6194,1.0909 L3.6194,0.1079 L0.8294,0.1079 L0.8294,1.0909 C0.8294,1.7069 1.2324,2.2239 1.7864,2.4089 L1.7864,6.7609 L0.2914,6.7609 L0.2914,12.0669 C0.2914,13.1339 1.1564,13.9999 2.2244,13.9999 C3.2914,13.9999 4.1574,13.1339 4.1574,12.0669 L4.1574,6.7609 L2.6614,6.7609 Z" id="Fill-4" fill="#E0E3E8" mask="url(#mask-4)"></path>
                        </g>
                    </g>
                </g>
            </g>
        </g>
    </g>
</svg>