<?xml version="1.0" encoding="UTF-8"?>
<svg width="14px" height="4px" viewBox="0 0 14 4" version="1.1" xmlns="http://www.w3.org/2000/svg" xmlns:xlink="http://www.w3.org/1999/xlink">
    <!-- Generator: Sketch 52.1 (67048) - http://www.bohemiancoding.com/sketch -->
    <title>Group 15 Copy</title>
    <desc>Created with Sketch.</desc>
    <g id="Page-1" stroke="none" stroke-width="1" fill="none" fill-rule="evenodd">
        <g id="Group-16" transform="translate(-11.000000, -226.000000)">
            <g id="Group-15-Copy" transform="translate(10.000000, 224.000000)">
                <rect id="Rectangle-Copy-28" fill-opacity="0" fill="#D8D8D8" fill-rule="nonzero" x="0" y="0" width="16" height="8"></rect>
                <g id="Group-9" transform="translate(1.000000, 2.000000)" fill="#E0E3E8">
                    <g id="Group-8">
                        <path d="M7,3.2091 C6.333,3.2091 5.791,2.6671 5.791,2.0001 C5.791,1.3331 6.333,0.7911 7,0.7911 C7.667,0.7911 8.209,1.3331 8.209,2.0001 C8.209,2.6671 7.667,3.2091 7,3.2091" id="Fill-2"></path>
                        <path d="M12.291,3.2091 C11.624,3.2091 11.082,2.6671 11.082,2.0001 C11.082,1.3331 11.624,0.7911 12.291,0.7911 C12.958,0.7911 13.5,1.3331 13.5,2.0001 C13.5,2.6671 12.958,3.2091 12.291,3.2091" id="Fill-4"></path>
                        <path d="M1.7095,3.2091 C1.0425,3.2091 0.5005,2.6671 0.5005,2.0001 C0.5005,1.3331 1.0425,0.7911 1.7095,0.7911 C2.3765,0.7911 2.9185,1.3331 2.9185,2.0001 C2.9185,2.6671 2.3765,3.2091 1.7095,3.2091" id="Fill-6"></path>
                    </g>
                </g>
            </g>
        </g>
    </g>
</svg>