<?xml version="1.0" encoding="UTF-8"?>
<svg width="10px" height="14px" viewBox="0 0 10 14" version="1.1" xmlns="http://www.w3.org/2000/svg" xmlns:xlink="http://www.w3.org/1999/xlink">
    <!-- Generator: Sketch 52.1 (67048) - http://www.bohemiancoding.com/sketch -->
    <title>Group 4</title>
    <desc>Created with Sketch.</desc>
    <g id="Symbols" stroke="none" stroke-width="1" fill="none" fill-rule="evenodd">
        <g id="Menu-/-Icon-/-点" transform="translate(-3.000000, -1.000000)" fill="#E0E3E8">
            <g id="Group-4" transform="translate(3.000000, 1.000000)">
                <path d="M5,0 C2.23571429,0 0,2.191 0,4.9 C0,8.575 5,14 5,14 C5,14 10,8.575 10,4.9 C10,2.191 7.76428571,0 5,0 Z M1.42857143,4.9 C1.42857143,2.968 3.02857143,1.4 5,1.4 C6.97142857,1.4 8.57142857,2.968 8.57142857,4.9 C8.57142857,6.916 6.51428571,9.933 5,11.816 C3.51428571,9.947 1.42857143,6.895 1.42857143,4.9 Z" id="Shape" fill-rule="nonzero"></path>
                <ellipse id="Oval" cx="5" cy="4.9" rx="1.78571429" ry="1.75"></ellipse>
            </g>
        </g>
    </g>
</svg>