<?xml version="1.0" encoding="UTF-8"?>
<svg width="14px" height="8px" viewBox="0 0 14 8" version="1.1" xmlns="http://www.w3.org/2000/svg" xmlns:xlink="http://www.w3.org/1999/xlink">
    <!-- Generator: Sketch 52.1 (67048) - http://www.bohemiancoding.com/sketch -->
    <title>Path</title>
    <desc>Created with Sketch.</desc>
    <g id="Symbols" stroke="none" stroke-width="1" fill="none" fill-rule="evenodd">
        <g id="Menu-/-Icon-/-测距" transform="translate(-1.000000, -4.000000)" fill="#E0E3E8" fill-rule="nonzero">
            <path d="M13.7272727,4 L2.27272727,4 C1.57272727,4 1,4.6 1,5.33333333 L1,10.6666667 C1,11.4 1.57272727,12 2.27272727,12 L13.7272727,12 C14.4272727,12 15,11.4 15,10.6666667 L15,5.33333333 C15,4.6 14.4272727,4 13.7272727,4 Z M13.7272727,10.6666667 L2.27272727,10.6666667 L2.27272727,5.33333333 L3.54545455,5.33333333 L3.54545455,8 L4.81818182,8 L4.81818182,5.33333333 L6.09090909,5.33333333 L6.09090909,8 L7.36363636,8 L7.36363636,5.33333333 L8.63636364,5.33333333 L8.63636364,8 L9.90909091,8 L9.90909091,5.33333333 L11.1818182,5.33333333 L11.1818182,8 L12.4545455,8 L12.4545455,5.33333333 L13.7272727,5.33333333 L13.7272727,10.6666667 Z" id="Shape"></path>
        </g>
    </g>
</svg>