<?xml version="1.0" encoding="UTF-8"?>
<svg width="14px" height="12px" viewBox="0 0 14 12" version="1.1" xmlns="http://www.w3.org/2000/svg" xmlns:xlink="http://www.w3.org/1999/xlink">
    <!-- Generator: Sketch 52.1 (67048) - http://www.bohemiancoding.com/sketch -->
    <title>Shape</title>
    <desc>Created with Sketch.</desc>
    <g id="Symbols" stroke="none" stroke-width="1" fill="none" fill-rule="evenodd">
        <g id="Menu-/-Icon-/-测距-Copy" transform="translate(-1.000000, -2.000000)" fill="#E0E3E8" fill-rule="nonzero">
            <path d="M10.3333333,8 C10.3333333,7.26666667 9.73333333,6.66666667 9,6.66666667 C8.26666667,6.66666667 7.66666667,7.26666667 7.66666667,8 C7.66666667,8.73333333 8.26666667,9.33333333 9,9.33333333 C9.73333333,9.33333333 10.3333333,8.73333333 10.3333333,8 Z M9,2 C5.68666667,2 3,4.68666667 3,8 L1,8 L3.66666667,10.6666667 L6.33333333,8 L4.33333333,8 C4.33333333,5.42 6.42,3.33333333 9,3.33333333 C11.58,3.33333333 13.6666667,5.42 13.6666667,8 C13.6666667,10.58 11.58,12.6666667 9,12.6666667 C7.99333333,12.6666667 7.06,12.34 6.29333333,11.8 L5.34666667,12.76 C6.36,13.5333333 7.62666667,14 9,14 C12.3133333,14 15,11.3133333 15,8 C15,4.68666667 12.3133333,2 9,2 Z" id="Shape"></path>
        </g>
    </g>
</svg>