<?xml version="1.0" encoding="UTF-8"?>
<svg width="14px" height="14px" viewBox="0 0 14 14" version="1.1" xmlns="http://www.w3.org/2000/svg" xmlns:xlink="http://www.w3.org/1999/xlink">
    <!-- Generator: Sketch 52.1 (67048) - http://www.bohemiancoding.com/sketch -->
    <title>Path</title>
    <desc>Created with Sketch.</desc>
    <g id="Symbols" stroke="none" stroke-width="1" fill="none" fill-rule="evenodd">
        <g id="Menu-/-Icon-/-地图截屏" transform="translate(-1.000000, -1.000000)" fill="#E0E3E8" fill-rule="nonzero">
            <path d="M11.1818182,9.90909091 L12.4545455,9.90909091 L12.4545455,4.81818182 C12.4545455,4.11818182 11.8818182,3.54545455 11.1818182,3.54545455 L6.09090909,3.54545455 L6.09090909,4.81818182 L11.1818182,4.81818182 L11.1818182,9.90909091 Z M4.81818182,11.1818182 L4.81818182,1 L3.54545455,1 L3.54545455,3.54545455 L1,3.54545455 L1,4.81818182 L3.54545455,4.81818182 L3.54545455,11.1818182 C3.54545455,11.8818182 4.11818182,12.4545455 4.81818182,12.4545455 L11.1818182,12.4545455 L11.1818182,15 L12.4545455,15 L12.4545455,12.4545455 L15,12.4545455 L15,11.1818182 L4.81818182,11.1818182 Z" id="Shape"></path>
        </g>
    </g>
</svg>