<?xml version="1.0" encoding="UTF-8"?>
<svg width="12px" height="14px" viewBox="0 0 12 14" version="1.1" xmlns="http://www.w3.org/2000/svg" xmlns:xlink="http://www.w3.org/1999/xlink">
    <!-- Generator: Sketch 52.1 (67048) - http://www.bohemiancoding.com/sketch -->
    <title>Group</title>
    <desc>Created with Sketch.</desc>
    <defs>
        <polygon id="path-1" points="0.8745 0 4.4115 0 4.4115 3.5368 0.8745 3.5368"></polygon>
        <polygon id="path-3" points="0.0001 10.0704683 11.284 10.0704683 11.284 14 0.0001 14"></polygon>
    </defs>
    <g id="Symbols" stroke="none" stroke-width="1" fill="none" fill-rule="evenodd">
        <g id="Menu-/-Icon-/-街景-2" transform="translate(-2.000000, -1.000000)">
            <g id="Group" transform="translate(2.400000, 1.000000)">
                <path d="M7.8716,4.0856 C7.6736,3.8876 7.4376,3.7906 7.1576,3.7906 L4.1246,3.7906 C3.8456,3.7906 3.6086,3.8876 3.4106,4.0856 C3.2126,4.2836 3.1156,4.5196 3.1156,4.7996 L3.1156,7.8306 C3.1156,7.9676 3.1656,8.0876 3.2646,8.1866 C3.3656,8.2856 3.4856,8.3356 3.6216,8.3356 L4.1266,8.3356 L4.1266,11.3706 C4.1266,11.5096 4.1766,11.6276 4.2756,11.7266 C4.3766,11.8256 4.4966,11.8766 4.6316,11.8766 L6.6526,11.8766 C6.7896,11.8766 6.9096,11.8276 7.0086,11.7266 C7.1076,11.6266 7.1576,11.5056 7.1576,11.3706 L7.1576,8.3376 L7.6636,8.3376 C7.8006,8.3376 7.9206,8.2876 8.0186,8.1886 C8.1186,8.0876 8.1686,7.9676 8.1686,7.8326 L8.1686,4.7996 C8.1686,4.5196 8.0716,4.2836 7.8716,4.0856" id="Fill-1" fill="#E0E3E8"></path>
                <g id="Group-5" transform="translate(3.000000, 0.000000)">
                    <mask id="mask-2" fill="white">
                        <use xlink:href="#path-1"></use>
                    </mask>
                    <g id="Clip-4"></g>
                    <path d="M3.8955,0.5158 C3.5495,0.1698 3.1325,-0.0022 2.6435,-0.0002 C2.1525,-0.0002 1.7365,0.1698 1.3905,0.5158 C1.0465,0.8618 0.8745,1.2788 0.8745,1.7678 C0.8745,2.2578 1.0445,2.6748 1.3905,3.0208 C1.7365,3.3648 2.1525,3.5368 2.6435,3.5368 C3.1325,3.5368 3.5495,3.3668 3.8955,3.0208 C4.2395,2.6748 4.4115,2.2578 4.4115,1.7678 C4.4115,1.2788 4.2415,0.8618 3.8955,0.5158" id="Fill-3" fill="#E0E3E8" mask="url(#mask-2)"></path>
                </g>
                <mask id="mask-4" fill="white">
                    <use xlink:href="#path-3"></use>
                </mask>
                <g id="Clip-7"></g>
                <path d="M5.6421,14.0002 C2.9241,14.0002 0.0001,13.3382 0.0001,11.8862 C0.0001,11.0992 0.8411,10.4832 2.4311,10.1072 C2.7091,10.0402 2.9911,10.2142 3.0571,10.4942 C3.1231,10.7732 2.9501,11.0542 2.6701,11.1202 C1.3841,11.4242 1.0531,11.8092 1.0401,11.8872 C1.0931,12.2062 2.7231,12.9592 5.6421,12.9592 C8.5611,12.9592 10.1901,12.2062 10.2441,11.8842 C10.2361,11.8422 10.0861,11.6252 9.4841,11.3872 C9.2081,11.2772 8.8821,11.1802 8.5161,11.0982 C8.2361,11.0352 8.0591,10.7572 8.1221,10.4772 C8.1841,10.1972 8.4611,10.0202 8.7441,10.0832 C9.1631,10.1762 9.5411,10.2902 9.8681,10.4192 C11.0381,10.8852 11.2841,11.4742 11.2841,11.8862 C11.2841,13.3382 8.3591,14.0002 5.6421,14.0002" id="Fill-6" fill="#E0E3E8" mask="url(#mask-4)"></path>
            </g>
        </g>
    </g>
</svg>